<svg xmlns="http://www.w3.org/2000/svg" xmlns:xlink="http://www.w3.org/1999/xlink" version="1.1" data-diagram-type="DESCRIPTION" style="width:1875px;height:2089px;background:#FFFFFF;" width="1875px" height="2089.583px" viewBox="0 0 1875 2089" zoomAndPan="magnify" preserveAspectRatio="none" contentStyleType="text/css"><?plantuml 1.2026.8?><defs/><g font-family="sans-serif" lengthAdjust="spacing"><g class="title" data-source-line="18"><text x="701.66" y="48.191" fill="#000" font-size="29.167" textLength="457.096" font-weight="700" font-family="Arial">SmartBuild — Use Case Diagram</text></g><!--cluster SmartBuild System--><g class="cluster" data-qualified-name="SmartBuild System" id="ent0005" data-source-line="26"><rect x="516.667" y="85.622" width="1047.917" height="1954.167" fill="none" style="stroke:#011723;stroke-width:2.083;" rx="5.208" ry="5.208"/><text x="897.353" y="119.101" fill="#000" font-size="31.25" textLength="286.545" font-weight="700" font-family="Arial">SmartBuild System</text></g><!--entity Student--><g class="entity" data-qualified-name="Student" id="ent0001" data-source-line="20"><ellipse cx="296.682" cy="906.455" rx="16.667" ry="16.667" fill="#FFF" style="stroke:#011723;stroke-width:1.042;"/><path d="M296.682,923.122 L296.682,979.372 M269.598,939.789 L323.765,939.789 M296.682,979.372 L269.598,1010.622 M296.682,979.372 L323.765,1010.622" style="stroke:#011723;stroke-width:1.042;" fill="none"/><text x="250" y="1039.151" fill="#000" font-size="27.083" textLength="93.363" font-family="Arial">Student</text></g><!--entity Teacher--><g class="entity" data-qualified-name="Teacher" id="ent0002" data-source-line="21"><ellipse cx="92.269" cy="1749.164" rx="16.667" ry="16.667" fill="#FFF" style="stroke:#011723;stroke-width:1.042;"/><path d="M92.269,1765.83 L92.269,1822.08 M65.186,1782.497 L119.352,1782.497 M92.269,1822.08 L65.186,1853.33 M92.269,1822.08 L119.352,1853.33" style="stroke:#011723;stroke-width:1.042;" fill="none"/><text x="12.5" y="1881.859" fill="#000" font-size="27.083" textLength="114.403" font-family="Arial">Teacher /</text><text x="12.5" y="1913.003" fill="#000" font-size="27.083" textLength="159.538" font-family="Arial">Administrator</text></g><!--entity Supa--><g class="entity" data-qualified-name="Supa" id="ent0003" data-source-line="22"><ellipse cx="1731.111" cy="1354.265" rx="16.667" ry="16.667" fill="#FFF" style="stroke:#011723;stroke-width:1.042;"/><path d="M1731.111,1370.932 L1731.111,1427.182 M1704.027,1387.599 L1758.194,1387.599 M1731.111,1427.182 L1704.027,1458.432 M1731.111,1427.182 L1758.194,1458.432" style="stroke:#011723;stroke-width:1.042;" fill="none"/><text x="1620.833" y="1486.961" fill="#000" font-size="27.083" textLength="121.981" font-family="Arial">Supabase</text><text x="1620.833" y="1518.104" fill="#000" font-size="27.083" textLength="220.555" font-family="Arial">(Auth + Database)</text><text x="1673.162" y="1330.818" fill="#000" font-size="27.083" textLength="115.898" font-style="italic" font-family="Arial">«system»</text></g><!--entity UC1--><g class="entity" data-qualified-name="SmartBuild System.UC1" id="ent0006" data-source-line="27"><ellipse cx="693.639" cy="210.183" rx="134.264" ry="31.853" fill="#E8F6FC" style="stroke:#17A6DF;stroke-width:1.042;"/><text x="592.023" y="218.463" fill="#000" font-size="27.083" textLength="203.231" font-family="Arial">Register account</text></g><!--entity UC2--><g class="entity" data-qualified-name="SmartBuild System.UC2" id="ent0007" data-source-line="28"><ellipse cx="693.352" cy="345.959" rx="120.435" ry="29.087" fill="#E8F6FC" style="stroke:#17A6DF;stroke-width:1.042;"/><text x="609.827" y="354.239" fill="#000" font-size="27.083" textLength="167.049" font-family="Arial">Confirm email</text></g><!--entity UC3--><g class="entity" data-qualified-name="SmartBuild System.UC3" id="ent0008" data-source-line="29"><ellipse cx="693.845" cy="442.019" rx="58.428" ry="28.272" fill="#E8F6FC" style="stroke:#17A6DF;stroke-width:1.042;"/><text x="656.949" y="450.299" fill="#000" font-size="27.083" textLength="73.792" font-family="Arial">Log in</text></g><!--entity UC4--><g class="entity" data-qualified-name="SmartBuild System.UC4" id="ent0009" data-source-line="30"><ellipse cx="693.271" cy="1331.663" rx="127.646" ry="47.082" fill="#E8F6FC" style="stroke:#17A6DF;stroke-width:1.042;"/><text x="600.681" y="1329.106" fill="#000" font-size="27.083" textLength="185.18" font-family="Arial">Reset forgotten</text><text x="635.315" y="1360.25" fill="#000" font-size="27.083" textLength="115.911" font-family="Arial">password</text></g><!--entity UC5--><g class="entity" data-qualified-name="SmartBuild System.UC5" id="ent0010" data-source-line="31"><ellipse cx="694.104" cy="535.769" rx="70.145" ry="28.272" fill="#E8F6FC" style="stroke:#17A6DF;stroke-width:1.042;"/><text x="648.923" y="544.049" fill="#000" font-size="27.083" textLength="90.362" font-family="Arial">Log out</text></g><!--entity UC6--><g class="entity" data-qualified-name="SmartBuild System.UC6" id="ent0011" data-source-line="32"><ellipse cx="694.257" cy="631.349" rx="125.507" ry="30.101" fill="#E8F6FC" style="stroke:#17A6DF;stroke-width:1.042;"/><text x="603.922" y="639.629" fill="#000" font-size="27.083" textLength="180.67" font-family="Arial">Delete account</text></g><!--entity UC7--><g class="entity" data-qualified-name="SmartBuild System.UC7" id="ent0012" data-source-line="33"><ellipse cx="693.471" cy="749.839" rx="123.679" ry="49.633" fill="#E8F6FC" style="stroke:#17A6DF;stroke-width:1.042;"/><text x="609.172" y="743.488" fill="#000" font-size="27.083" textLength="168.596" font-family="Arial">View modules</text><text x="614.429" y="774.631" fill="#000" font-size="27.083" textLength="158.083" font-family="Arial">and progress</text></g><!--entity UC8--><g class="entity" data-qualified-name="SmartBuild System.UC8" id="ent0013" data-source-line="34"><ellipse cx="694.067" cy="883.707" rx="126.358" ry="46.002" fill="#E8F6FC" style="stroke:#17A6DF;stroke-width:1.042;"/><text x="599.969" y="882.854" fill="#000" font-size="27.083" textLength="188.195" font-family="Arial">Study Module 0</text><text x="654.923" y="913.997" fill="#000" font-size="27.083" textLength="78.288" font-family="Arial">lesson</text></g><!--entity UC9--><g class="entity" data-qualified-name="SmartBuild System.UC9" id="ent0014" data-source-line="35"><ellipse cx="693.7" cy="1016.403" rx="111.408" ry="48.489" fill="#E8F6FC" style="stroke:#17A6DF;stroke-width:1.042;"/><text x="616.166" y="1011.72" fill="#000" font-size="27.083" textLength="155.068" font-family="Arial">Take Guided</text><text x="630.474" y="1042.863" fill="#000" font-size="27.083" textLength="126.451" font-family="Arial">Simulation</text></g><!--entity UC10--><g class="entity" data-qualified-name="SmartBuild System.UC10" id="ent0015" data-source-line="36"><ellipse cx="694.058" cy="1174.951" rx="128.433" ry="71.621" fill="#E8F6FC" style="stroke:#17A6DF;stroke-width:1.042;"/><text x="606.745" y="1153.075" fill="#000" font-size="27.083" textLength="174.627" font-family="Arial">Take Scenario</text><text x="620.306" y="1184.218" fill="#000" font-size="27.083" textLength="147.504" font-family="Arial">Assessment</text><text x="610.513" y="1215.361" fill="#000" font-size="27.083" textLength="167.089" font-family="Arial">(after Guided)</text></g><!--entity UC11--><g class="entity" data-qualified-name="SmartBuild System.UC11" id="ent0016" data-source-line="37"><ellipse cx="1283.045" cy="1106.535" rx="247.629" ry="65.705" fill="#E8F6FC" style="stroke:#17A6DF;stroke-width:1.042;"/><text x="1151.345" y="1080.562" fill="#000" font-size="27.083" textLength="263.401" font-family="Arial">Perform module tasks</text><text x="1093.389" y="1111.705" fill="#000" font-size="27.083" textLength="379.312" font-family="Arial">(PC assembly, network cabling,</text><text x="1118.958" y="1142.848" fill="#000" font-size="27.083" textLength="328.174" font-family="Arial">server setup, maintenance)</text></g><!--entity UC12--><g class="entity" data-qualified-name="SmartBuild System.UC12" id="ent0017" data-source-line="38"><ellipse cx="1283.599" cy="943.962" rx="122.14" ry="46.882" fill="#E8F6FC" style="stroke:#17A6DF;stroke-width:1.042;"/><text x="1194.771" y="941.717" fill="#000" font-size="27.083" textLength="177.655" font-family="Arial">Save and sync</text><text x="1230.913" y="972.86" fill="#000" font-size="27.083" textLength="105.371" font-family="Arial">progress</text></g><!--entity UC13--><g class="entity" data-qualified-name="SmartBuild System.UC13" id="ent0018" data-source-line="39"><ellipse cx="693.783" cy="1446.045" rx="126.074" ry="30.215" fill="#E8F6FC" style="stroke:#17A6DF;stroke-width:1.042;"/><text x="602.7" y="1454.325" fill="#000" font-size="27.083" textLength="182.165" font-family="Arial">Retake module</text></g><!--entity UC14--><g class="entity" data-qualified-name="SmartBuild System.UC14" id="ent0019" data-source-line="40"><ellipse cx="693.469" cy="1562.482" rx="143.469" ry="47.693" fill="#E8F6FC" style="stroke:#17A6DF;stroke-width:1.042;"/><text x="590.352" y="1558.991" fill="#000" font-size="27.083" textLength="206.233" font-family="Arial">Search computer</text><text x="619.697" y="1590.134" fill="#000" font-size="27.083" textLength="147.543" font-family="Arial">components</text></g><!--entity UC15--><g class="entity" data-qualified-name="SmartBuild System.UC15" id="ent0020" data-source-line="41"><ellipse cx="693.824" cy="1693.609" rx="132.366" ry="45.487" fill="#E8F6FC" style="stroke:#17A6DF;stroke-width:1.042;"/><text x="593.723" y="1693.594" fill="#000" font-size="27.083" textLength="200.202" font-family="Arial">View how-to-use</text><text x="668.222" y="1724.737" fill="#000" font-size="27.083" textLength="51.204" font-family="Arial">help</text></g><!--entity UC16--><g class="entity" data-qualified-name="SmartBuild System.UC16" id="ent0021" data-source-line="42"><ellipse cx="694.195" cy="1825.047" rx="127.528" ry="46.716" fill="#E8F6FC" style="stroke:#17A6DF;stroke-width:1.042;"/><text x="600.858" y="1823.06" fill="#000" font-size="27.083" textLength="186.674" font-family="Arial">Monitor student</text><text x="641.509" y="1854.203" fill="#000" font-size="27.083" textLength="105.371" font-family="Arial">progress</text></g><!--entity UC17--><g class="entity" data-qualified-name="SmartBuild System.UC17" id="ent0022" data-source-line="43"><ellipse cx="694.224" cy="1958.102" rx="110.891" ry="47.48" fill="#E8F6FC" style="stroke:#17A6DF;stroke-width:1.042;"/><text x="615.183" y="1954.935" fill="#000" font-size="27.083" textLength="158.083" font-family="Arial">Manage user</text><text x="640.025" y="1986.078" fill="#000" font-size="27.083" textLength="108.399" font-family="Arial">accounts</text></g><g class="link" data-entity-1="ent0002" data-entity-2="ent0001" id="lnk4" data-link-type="extension"><polygon points="276.452,1045.579,255.768,1079.264,280.116,1084.937,276.452,1045.579" fill="none" style="stroke:#4A5A66;stroke-width:2.083;stroke-linejoin:miter;stroke-miterlimit:10;"/><path d="M116.767,1730.893 C156.494,1560.399 231.046,1240.449 267.942,1082.101" style="stroke:#4A5A66;stroke-width:2.083;" fill="none"/></g><g class="link" data-entity-1="ent0001" data-entity-2="ent0006" id="lnk23" data-link-type="association"><path d="M305.716,888.444 C315.198,799.578 336.568,651.5 381.25,531.455 C423.076,419.084 429.287,380.229 516.667,298.122 C541.173,275.094 572.897,256.791 602.591,243.003" style="stroke:#4A5A66;stroke-width:2.083;" fill="none"/></g><g class="link" data-entity-1="ent0001" data-entity-2="ent0008" id="lnk24" data-link-type="association"><path d="M305.419,888.735 C314.17,816.034 334.502,706.661 381.25,623.122 C422.815,548.846 442.835,530.055 516.667,487.705 C553.173,466.766 599.409,455.19 635.187,448.912" style="stroke:#4A5A66;stroke-width:2.083;" fill="none"/></g><g class="link" data-entity-1="ent0001" data-entity-2="ent0010" id="lnk25" data-link-type="association"><path d="M313.465,888.556 C325.768,835.453 347.005,765.259 381.25,710.622 C425.422,640.147 444.035,621.984 516.667,581.455 C549.578,563.091 590.087,551.873 623.839,545.136" style="stroke:#4A5A66;stroke-width:2.083;" fill="none"/></g><g class="link" data-entity-1="ent0001" data-entity-2="ent0011" id="lnk26" data-link-type="association"><path d="M325.601,888.254 C339.117,855.178 357.714,817.533 381.25,787.705 C428.637,727.65 448.524,716.223 516.667,681.455 C532.71,673.27 550.284,666.251 567.913,660.284" style="stroke:#4A5A66;stroke-width:2.083;" fill="none"/></g><g class="link" data-entity-1="ent0001" data-entity-2="ent0012" id="lnk27" data-link-type="association"><path d="M340.786,888.662 C352.178,872.805 365.734,857.499 381.25,846.039 C436.145,805.492 508.496,781.865 569.537,768.222" style="stroke:#4A5A66;stroke-width:2.083;" fill="none"/></g><g class="link" data-entity-1="ent0001" data-entity-2="ent0013" id="lnk28" data-link-type="association"><path d="M344.007,957.313 C398.202,945.812 491.416,926.032 567.689,909.847" style="stroke:#4A5A66;stroke-width:2.083;" fill="none"/></g><g class="link" data-entity-1="ent0001" data-entity-2="ent0014" id="lnk29" data-link-type="association"><path d="M344.007,972.608 C401.627,979.944 503.354,992.896 581.933,1002.901" style="stroke:#4A5A66;stroke-width:2.083;" fill="none"/></g><g class="link" data-entity-1="ent0001" data-entity-2="ent0015" id="lnk30" data-link-type="association"><path d="M343.804,991.78 C387.692,1016.05 456.526,1053.834 516.667,1085.622 C532.358,1093.916 548.895,1102.537 565.287,1111.009" style="stroke:#4A5A66;stroke-width:2.083;" fill="none"/></g><g class="link" data-entity-1="ent0001" data-entity-2="ent0018" id="lnk31" data-link-type="association"><path d="M341.553,1045.516 C383.522,1123.986 448.635,1248.4 500,1358.539 C508.068,1375.838 502.313,1385.539 516.667,1398.122 C531.116,1410.789 548.615,1420.14 566.891,1427.036" style="stroke:#4A5A66;stroke-width:2.083;" fill="none"/></g><g class="link" data-entity-1="ent0001" data-entity-2="ent0019" id="lnk32" data-link-type="association"><path d="M302.51,1045.632 C309.1,1128.048 327.87,1259.045 381.25,1358.539 C386.319,1367.986 507.69,1490.177 516.667,1496.039 C527.011,1502.794 538.14,1509.013 549.593,1514.705" style="stroke:#4A5A66;stroke-width:2.083;" fill="none"/></g><g class="link" data-entity-1="ent0001" data-entity-2="ent0020" id="lnk33" data-link-type="association"><path d="M297.767,1045.106 C299.146,1149.696 312.195,1338.479 381.25,1481.455 C420.014,1561.714 442.68,1579.672 516.667,1629.372 C530.377,1638.582 545.57,1646.685 561.11,1653.758" style="stroke:#4A5A66;stroke-width:2.083;" fill="none"/></g><g class="link" data-entity-1="ent0002" data-entity-2="ent0021" id="lnk34" data-link-type="association"><path d="M173.436,1825.205 C273.627,1825.205 447.979,1825.205 566.519,1825.205" style="stroke:#4A5A66;stroke-width:2.083;" fill="none"/></g><g class="link" data-entity-1="ent0002" data-entity-2="ent0022" id="lnk35" data-link-type="association"><path d="M173.436,1842.774 C278.375,1866.215 464.672,1907.831 582.983,1934.26" style="stroke:#4A5A66;stroke-width:2.083;" fill="none"/></g><g class="link" data-entity-1="ent0007" data-entity-2="ent0006" id="lnk36" data-link-type="dependency"><polygon points="693.75,243.754,685.417,262.504,693.75,254.171,702.083,262.504,693.75,243.754" fill="#4A5A66" style="stroke:#4A5A66;stroke-width:2.083;stroke-linejoin:miter;stroke-miterlimit:10;"/><path d="M693.75,316.655 C693.75,295.186 693.75,276.468 693.75,254.171" style="stroke:#4A5A66;stroke-width:2.083;stroke-dasharray:14.583,14.583;" fill="none"/><text x="613.542" y="290.714" fill="#000" font-size="27.083" textLength="111.441" font-family="Arial">«extend»</text></g><g class="link" data-entity-1="ent0009" data-entity-2="ent0008" id="lnk37" data-link-type="dependency"><polygon points="635.18,442.223,615.772,435.564,624.803,443.135,617.232,452.167,635.18,442.223" fill="#4A5A66" style="stroke:#4A5A66;stroke-width:2.083;stroke-linejoin:miter;stroke-miterlimit:10;"/><path d="M565.153,1302.069 C546.951,1293.245 529.946,1281.777 516.667,1266.872 C402.677,1138.929 447.128,1062.052 427.083,891.872 C408.143,731.068 449.422,555.874 516.667,487.705 C547.443,456.506 586.12,446.538 624.803,443.135" style="stroke:#4A5A66;stroke-width:2.083;stroke-dasharray:14.583,14.583;" fill="none"/><text x="385.417" y="883.943" fill="#000" font-size="27.083" textLength="111.441" font-family="Arial">«extend»</text></g><g class="link" data-entity-1="ent0014" data-entity-2="ent0016" id="lnk38" data-link-type="dependency"><polygon points="1034.777,1068.357,1017.509,1057.274,1024.481,1066.776,1014.979,1073.748,1034.777,1068.357" fill="#4A5A66" style="stroke:#4A5A66;stroke-width:2.083;stroke-linejoin:miter;stroke-miterlimit:10;"/><path d="M805.613,1033.458 C862.928,1042.135 934.209,1052.954 997.917,1062.705 C1009.971,1064.551 1012.016,1064.862 1024.481,1066.776" style="stroke:#4A5A66;stroke-width:2.083;stroke-dasharray:14.583,14.583;" fill="none"/><text x="879.167" y="1036.026" fill="#000" font-size="27.083" textLength="115.951" font-family="Arial">«include»</text></g><g class="link" data-entity-1="ent0015" data-entity-2="ent0016" id="lnk39" data-link-type="dependency"><polygon points="1069.839,1172.255,1049.707,1168.29,1059.682,1174.566,1053.405,1184.541,1069.839,1172.255" fill="#4A5A66" style="stroke:#4A5A66;stroke-width:2.083;stroke-linejoin:miter;stroke-miterlimit:10;"/><path d="M822.064,1183.466 C839.831,1184.36 857.87,1185.125 875,1185.622 C929.607,1187.208 943.793,1193.041 997.917,1185.622 C1021.446,1182.397 1035.619,1180.043 1059.682,1174.566" style="stroke:#4A5A66;stroke-width:2.083;stroke-dasharray:14.583,14.583;" fill="none"/><text x="879.167" y="1177.693" fill="#000" font-size="27.083" textLength="115.951" font-family="Arial">«include»</text></g><g class="link" data-entity-1="ent0013" data-entity-2="ent0017" id="lnk40" data-link-type="dependency"><polygon points="1161.209,917.656,1144.424,905.855,1150.989,915.642,1141.201,922.207,1161.209,917.656" fill="#4A5A66" style="stroke:#4A5A66;stroke-width:2.083;stroke-linejoin:miter;stroke-miterlimit:10;"/><path d="M820.311,882.664 C874.933,883.391 939.738,885.759 997.917,891.872 C1051.885,897.543 1100.782,905.748 1150.989,915.642" style="stroke:#4A5A66;stroke-width:2.083;stroke-dasharray:14.583,14.583;" fill="none"/><text x="879.167" y="877.693" fill="#000" font-size="27.083" textLength="115.951" font-family="Arial">«include»</text></g><g class="link" data-entity-1="ent0014" data-entity-2="ent0017" id="lnk41" data-link-type="dependency"><polygon points="1160.767,949.55,1141.556,942.343,1150.369,950.167,1142.545,958.98,1160.767,949.55" fill="#4A5A66" style="stroke:#4A5A66;stroke-width:2.083;stroke-linejoin:miter;stroke-miterlimit:10;"/><path d="M805.306,990.221 C828.226,985.336 852.32,980.708 875,977.289 C970.517,962.887 1069.275,954.984 1150.369,950.167" style="stroke:#4A5A66;stroke-width:2.083;stroke-dasharray:14.583,14.583;" fill="none"/><text x="879.167" y="954.776" fill="#000" font-size="27.083" textLength="115.951" font-family="Arial">«include»</text></g><g class="link" data-entity-1="ent0015" data-entity-2="ent0017" id="lnk42" data-link-type="dependency"><polygon points="1161.406,961.329,1141.16,957.998,1151.326,963.958,1145.366,974.125,1161.406,961.329" fill="#4A5A66" style="stroke:#4A5A66;stroke-width:2.083;stroke-linejoin:miter;stroke-miterlimit:10;"/><path d="M822.59,1152.787 C898.805,1138.346 983.749,1120.165 997.917,1108.539 C1029.968,1082.239 1004.641,1050.904 1035.417,1023.122 C1070.197,991.725 1107.466,975.398 1151.326,963.958" style="stroke:#4A5A66;stroke-width:2.083;stroke-dasharray:14.583,14.583;" fill="none"/><text x="879.167" y="1100.609" fill="#000" font-size="27.083" textLength="115.951" font-family="Arial">«include»</text></g><g class="link" data-entity-1="ent0006" data-entity-2="ent0003" id="lnk43" data-link-type="association"><path d="M777.733,243.221 C801.025,256.645 823.772,274.671 837.5,298.122 C887.948,384.297 809.853,1120.362 875,1196.039 C976.829,1314.325 1417.174,1278.079 1564.583,1329.372 C1583.13,1335.826 1602.183,1344.054 1620.447,1352.844" style="stroke:#4A5A66;stroke-width:2.083;" fill="none"/></g><g class="link" data-entity-1="ent0008" data-entity-2="ent0003" id="lnk44" data-link-type="association"><path d="M752.314,445.185 C782.547,450.135 817.569,461.619 837.5,487.705 C891.385,558.231 815.558,1219.712 875,1285.622 C899.829,1313.153 1395.977,1375.224 1620.477,1402.046" style="stroke:#4A5A66;stroke-width:2.083;" fill="none"/></g><g class="link" data-entity-1="ent0009" data-entity-2="ent0003" id="lnk45" data-link-type="association"><path d="M808.441,1378.607 C818.637,1384.588 828.498,1391.1 837.5,1398.122 C858.253,1414.31 851.216,1432.685 875,1443.955 C1120.377,1560.235 1451.422,1495.367 1620.269,1448.917" style="stroke:#4A5A66;stroke-width:2.083;" fill="none"/></g><g class="link" data-entity-1="ent0011" data-entity-2="ent0003" id="lnk46" data-link-type="association"><path d="M816.771,661.67 C824.639,667.199 831.712,673.733 837.5,681.455 C883.104,742.303 821.33,1310.922 875,1364.789 C976.57,1466.73 1413.664,1443.006 1620.229,1425.44" style="stroke:#4A5A66;stroke-width:2.083;" fill="none"/></g><g class="link" data-entity-1="ent0017" data-entity-2="ent0003" id="lnk47" data-link-type="association"><path d="M1405.315,954.333 C1459.408,964.499 1520.829,984.385 1564.583,1023.122 C1646.867,1095.971 1689.122,1216.701 1710.069,1304.896" style="stroke:#4A5A66;stroke-width:2.083;" fill="none"/></g><g class="link" data-entity-1="ent0021" data-entity-2="ent0003" id="lnk48" data-link-type="association"><path d="M821.486,1789.876 C993.506,1739.451 1309.998,1639.259 1564.583,1516.872 C1583.069,1507.986 1602.089,1497.538 1620.34,1486.778" style="stroke:#4A5A66;stroke-width:2.083;" fill="none"/></g><g class="link" data-entity-1="ent0022" data-entity-2="ent0003" id="lnk49" data-link-type="association"><path d="M804.302,1957.089 C981.942,1949.292 1337.777,1910.299 1564.583,1729.372 C1629.633,1677.481 1671.845,1592.836 1697.216,1524.412" style="stroke:#4A5A66;stroke-width:2.083;" fill="none"/></g><?plantuml-src VLJBRjim4BphAxRf9KMJr8_uLGG67BlffGc2AEd9busqbWbJf41ISTq7q8_e5_PBkh8aXxAJwiJL36TtPqc-oGmcAOB4ZSuTs9GSAWmaBHmu3KOaImUnC1GveLLWLq9bQ325E1FGQRNyFxJ0NBehhTmDfWGJ8r2-Z8VYEq6xwu5sYR5U2vN00gKb3yamMc52eTj8Wg8EL8dq2HDZz7ggfJRmzdpIc_JxFXWvRIwrYSbKb5QxFUXq3oYS9J4wLt55kzf-7kt1KeIM3eYVXbVzg-aBH3zfUp3fptorkxgH_zUsepsxrlFW6-tefShxiza-oqyp6qswFBh02SUUXYaQTvaB6SFVtt-Ayc7AzSDCOCBRWm0BW-0eT7bCoXq1MgZMDNHF62t9m8UvciIfKC8wWunikHMuayapV6JzkJgUv6u9xs66RlldNIdDE5nSs8rrb8x7GL2Bdvx-7EyI1xkJm8hF3OJRNKVm8m38opd0qHqbN10hO1InJsK73zEspvbgjH0c1KfHo8hGyGbVT092LKYtAM_9mKARH3j7QiwkMxjclolo-RuCNxGAwldGZ2GvsYkoxpE-2bf3gkDSafqhL35aHYU6hAtO0vzTMBM1woqTMdF5cwokEnZwp7jS4NpEHKpnN8KYpIKMjxsYZWweOKGAZT0yRMjPDUM9y3XnKPXSwhohJMxvks_9i4zfrGCuj2jkvFXsocHBwQFSd80Yn-Qj8C97oU_1oLnPCayip2xdsGdmW1JRZ2gYNPB6A4DyOXVP7BjH4K-ZQL6xqvoTAnegwwaPZUc6X2PQGgJJBEVsvgfOQSKTxnJF3sQqrEjJfq_pufGlIMOrip7lQwr4SIDiUQGFAstC_fgVvOIAc6kepiYEEGX-1K5rDVYUR0zt8-msmrupx3V3GJCSDiFHNgBMNhoNYjrfnZt_HfTjDkD14F3TWxDn4S17VWle6myyvhU0BrFvlxl_VmHdvOPoXr2HvAHRgDrw7HlMKES06hqEFIlkOmLOj54yOa5HvlFwt5ltlJLhU4436TJ1Fm00?></g></svg>